<?xml version="1.0" standalone="no"?>
<!DOCTYPE svg PUBLIC "-//W3C//DTD SVG 20010904//EN"
 "http://www.w3.org/TR/2001/REC-SVG-20010904/DTD/svg10.dtd">
<svg version="1.0" xmlns="http://www.w3.org/2000/svg"
 width="700.000000pt" height="700.000000pt" viewBox="0 0 700.000000 700.000000"
 preserveAspectRatio="xMidYMid meet">
<metadata>
Created by potrace 1.11, written by Peter Selinger 2001-2013
</metadata>
<g transform="translate(0.000000,700.000000) scale(0.100000,-0.100000)"
fill="#000000" stroke="none">
<path d="M4112 6235 c-122 -27 -261 -106 -345 -199 -52 -56 -115 -161 -137
-227 -34 -99 -35 -106 -34 -239 1 -100 5 -138 23 -189 32 -96 85 -184 156
-259 67 -72 64 -62 35 -137 -5 -11 -20 -51 -34 -90 -13 -38 -86 -239 -161
-445 -76 -206 -145 -397 -154 -425 -22 -64 -154 -426 -192 -525 -24 -64 -195
-534 -304 -835 -220 -609 -206 -575 -234 -576 -232 -7 -449 -134 -564 -330
-185 -315 -82 -725 229 -911 448 -268 1011 47 1012 567 1 176 -58 328 -174
454 l-62 66 150 410 c82 226 156 430 165 455 8 25 37 104 63 175 27 72 105
288 175 480 70 193 142 391 160 440 19 50 109 297 200 550 92 253 169 461 170
463 2 2 30 5 64 8 259 19 494 210 578 471 33 100 36 252 9 358 -91 351 -441
566 -794 490z"/>
</g>
</svg>
